<svg width="56" height="56" viewBox="0 0 56 56" fill="none" xmlns="http://www.w3.org/2000/svg">
<g clip-path="url(#clip0_49_38)">
<path d="M46.7846 38.5296L53.278 38.7264L54.1848 34.7659L55.0917 30.8053L49.1418 28.2089C49.0631 25.3566 48.4227 22.6451 47.322 20.1818L51.5475 15.2176L49.0177 12.0382L46.4878 8.85891L40.7302 11.8974C38.5426 10.2472 36.0248 9.0103 33.2936 8.30631L32.0643 1.90527H23.9389L22.7095 8.30631C19.9844 9.00879 17.4742 10.2396 15.2896 11.8838L9.53653 8.83923L7.00366 12.0155L4.4708 15.1918L8.69022 20.1606C7.58805 22.6223 6.94311 25.3323 6.86135 28.1847L0.908447 30.775L1.81077 34.7356L2.71309 38.6961L9.208 38.5069C10.4873 40.9761 12.2359 43.1608 14.3388 44.9427L12.675 51.1984L16.3342 52.9622L19.9935 54.7259L23.8707 49.5436C25.206 49.8086 26.5868 49.9494 27.9993 49.9494C29.4118 49.9494 30.7774 49.8086 32.1067 49.5482L35.9794 54.735L39.6402 52.9743L43.3009 51.2136L41.6447 44.9563C43.7506 43.1774 45.5007 40.9943 46.7831 38.5265" stroke="white" stroke-linecap="round" stroke-linejoin="round"/>
<path d="M30.6125 42.4004C38.1262 40.9589 43.0486 33.6993 41.6072 26.1857C40.1657 18.672 32.9062 13.7496 25.3925 15.191C17.8789 16.6325 12.9564 23.892 14.3978 31.4057C15.8393 38.9193 23.0989 43.8418 30.6125 42.4004Z" stroke="white" stroke-linecap="round" stroke-linejoin="round"/>
<path d="M22.599 24.6587L18.7869 28.813L22.7489 33.1172" stroke="white" stroke-linecap="round" stroke-linejoin="round"/>
<path d="M33.4041 24.6587L37.2162 28.813L33.2527 33.1172" stroke="white" stroke-linecap="round" stroke-linejoin="round"/>
<path d="M25.8645 34.5101L30.3519 23.2659" stroke="white" stroke-linecap="round" stroke-linejoin="round"/>
</g>
<defs>
<clipPath id="clip0_49_38">
<rect width="56" height="56" fill="white"/>
</clipPath>
</defs>
</svg>
